<svg width="126" height="50" viewBox="0 0 126 50" fill="none" xmlns="http://www.w3.org/2000/svg">
<path d="M0.559998 46.19H117.21" stroke="black" stroke-width="0.9711" stroke-miterlimit="10"/>
<path d="M0.559998 48.9H117.21" stroke="black" stroke-width="0.9711" stroke-miterlimit="10"/>
<path d="M22.67 39.87V40.95H1.51999V39.87H2.85999C4.02999 39.87 4.98 39.66 5.69 39.25C6.21 38.98 6.61 38.51 6.88 37.84C7.1 37.37 7.20999 36.14 7.20999 34.15V8.01003C7.20999 5.98003 7.1 4.71003 6.88 4.20003C6.66001 3.69003 6.21999 3.25003 5.54999 2.87003C4.87999 2.49003 3.98001 2.30003 2.85001 2.30003H1.51001V1.22003H22.66V2.30003H21.32C20.15 2.30003 19.2 2.51003 18.49 2.92003C17.97 3.19003 17.57 3.66003 17.27 4.33003C17.05 4.80003 16.94 6.03003 16.94 8.02003V34.17C16.94 36.2 17.05 37.47 17.28 37.98C17.51 38.49 17.96 38.93 18.62 39.31C19.29 39.69 20.19 39.88 21.32 39.88H22.67V39.87Z" fill="black"/>
<path d="M51.25 19.88C55.09 20.76 57.78 21.82 59.33 23.07C61.56 24.85 62.67 27.15 62.67 29.99C62.67 32.98 61.45 35.45 59 37.41C56 39.77 51.63 40.96 45.9 40.96H25.35V39.88C27.22 39.88 28.49 39.71 29.15 39.37C29.82 39.03 30.28 38.58 30.55 38.04C30.82 37.49 30.95 36.14 30.95 34V8.19003C30.95 6.04003 30.82 4.69003 30.55 4.13003C30.28 3.57003 29.81 3.13003 29.13 2.80003C28.45 2.47003 27.19 2.30003 25.34 2.30003V1.22003H44.73C49.36 1.22003 52.65 1.63003 54.57 2.44003C56.5 3.25003 58.02 4.46003 59.13 6.07003C60.24 7.68003 60.8 9.40003 60.8 11.21C60.8 13.13 60.09 14.83 58.68 16.32C57.3 17.82 54.81 19 51.25 19.88ZM40.39 21.38V34.13L40.36 35.6C40.36 36.66 40.63 37.45 41.18 37.99C41.73 38.53 42.54 38.8 43.61 38.8C45.2 38.8 46.67 38.45 48.01 37.76C49.35 37.07 50.38 36.06 51.1 34.74C51.82 33.42 52.17 31.95 52.17 30.33C52.17 28.47 51.73 26.81 50.86 25.33C49.98 23.85 48.78 22.82 47.25 22.24C45.72 21.64 43.43 21.36 40.39 21.38ZM40.39 19.09C43.21 19.09 45.3 18.78 46.64 18.15C47.98 17.52 49.01 16.65 49.73 15.51C50.45 14.37 50.8 12.93 50.8 11.17C50.8 9.41003 50.45 7.97003 49.74 6.85003C49.03 5.73003 48.03 4.87003 46.71 4.29003C45.4 3.70003 43.29 3.42003 40.39 3.44003V19.09Z" fill="black"/>
<path d="M89.86 0.300018L90.19 13.55H88.97C88.39 10.23 86.98 7.56002 84.72 5.53002C82.46 3.51002 80.02 2.50002 77.4 2.50002C75.37 2.50002 73.76 3.03002 72.58 4.10002C71.4 5.17002 70.8 6.39002 70.8 7.78002C70.8 8.66002 71.01 9.44002 71.43 10.12C72.01 11.04 72.93 11.95 74.2 12.85C75.14 13.5 77.29 14.64 80.67 16.28C85.4 18.57 88.59 20.73 90.25 22.76C91.88 24.79 92.7 27.12 92.7 29.74C92.7 33.06 91.38 35.92 88.75 38.31C86.12 40.7 82.77 41.9 78.71 41.9C77.44 41.9 76.23 41.77 75.1 41.52C73.97 41.27 72.54 40.79 70.83 40.08C69.87 39.69 69.09 39.49 68.47 39.49C67.95 39.49 67.41 39.69 66.83 40.08C66.25 40.47 65.79 41.07 65.43 41.87H64.33V26.86H65.43C66.31 31.08 67.99 34.3 70.49 36.52C72.99 38.74 75.68 39.85 78.56 39.85C80.79 39.85 82.56 39.25 83.89 38.06C85.21 36.87 85.87 35.48 85.87 33.9C85.87 32.96 85.62 32.05 85.11 31.17C84.6 30.29 83.83 29.46 82.8 28.66C81.77 27.87 79.94 26.84 77.31 25.57C73.63 23.79 70.99 22.28 69.37 21.03C67.76 19.78 66.52 18.38 65.66 16.84C64.79 15.3 64.36 13.6 64.36 11.74C64.36 8.57002 65.54 5.88002 67.91 3.65002C70.28 1.42002 73.26 0.31002 76.86 0.31002C78.17 0.31002 79.44 0.470018 80.68 0.780018C81.61 1.01002 82.75 1.45002 84.1 2.08002C85.44 2.72002 86.38 3.03002 86.92 3.03002C87.44 3.03002 87.84 2.87002 88.14 2.56002C88.44 2.25002 88.72 1.50002 88.97 0.300018H89.86Z" fill="#3777BC"/>
<path d="M106.75 22.96V33.98C106.75 36.13 106.88 37.48 107.15 38.04C107.42 38.6 107.9 39.04 108.58 39.37C109.27 39.7 110.52 39.87 112.35 39.87V40.95H91.8V39.87C93.67 39.87 94.94 39.7 95.6 39.36C96.27 39.02 96.73 38.57 97 38.03C97.27 37.48 97.4 36.13 97.4 33.99V8.19003C97.4 6.04003 97.27 4.69003 97 4.13003C96.73 3.57003 96.26 3.13003 95.58 2.80003C94.9 2.47003 93.64 2.30003 91.79 2.30003V1.22003H109.42C115.23 1.22003 119.39 2.24003 121.92 4.27003C124.45 6.30003 125.71 8.84003 125.71 11.89C125.71 14.47 124.89 16.68 123.26 18.51C121.63 20.35 119.38 21.6 116.52 22.26C114.6 22.73 111.34 22.96 106.75 22.96ZM106.75 3.50003V20.68C107.41 20.72 107.9 20.74 108.24 20.74C110.67 20.74 112.54 20.03 113.85 18.61C115.16 17.19 115.82 15 115.82 12.03C115.82 9.08003 115.16 6.92003 113.85 5.55003C112.54 4.18003 110.58 3.50003 107.97 3.50003H106.75Z" fill="black"/>
</svg>
