<svg width="494" height="25" viewBox="0 0 494 25" fill="none" xmlns="http://www.w3.org/2000/svg">
<path d="M15.81 0.279991L16.04 0.73999C15.11 1.01999 14.46 1.37999 14.11 1.83999C13.75 2.29999 13.58 2.91999 13.58 3.68999C13.58 4.64999 13.79 6.34999 14.21 8.78999C14.55 10.76 14.75 12 14.81 12.52C14.87 13.04 14.9 13.58 14.9 14.14C14.9 15.55 14.64 16.74 14.11 17.68C13.59 18.63 12.92 19.32 12.1 19.76C11.28 20.2 10.54 20.41 9.88004 20.41C9.18004 20.41 8.01004 20.15 6.38004 19.64C5.09004 19.24 4.16003 19.04 3.61003 19.04C3.06003 19.04 2.59004 19.18 2.21004 19.46C1.83004 19.74 1.54003 20.16 1.36003 20.71L0.850037 20.5C1.06004 19.66 1.34003 19.02 1.69003 18.55C2.14003 17.95 2.62004 17.52 3.13004 17.28C3.64004 17.04 4.38003 16.89 5.36003 16.84C6.34003 16.79 7.00003 16.58 7.36003 16.21C7.71003 15.85 7.89003 15.29 7.89003 14.51C7.89003 12.95 7.58003 11.77 6.97003 10.96C6.53003 10.37 5.94003 10.08 5.22003 10.08C4.92003 10.08 4.61003 10.14 4.30003 10.27C3.99003 10.4 3.56003 10.66 3.03003 11.05L2.64003 10.72C3.11003 9.91999 3.66002 9.31999 4.29002 8.91999C4.92002 8.51999 5.66003 8.30999 6.50003 8.30999C6.62003 8.30999 6.78003 8.30999 6.95003 8.31999C6.98003 6.86999 7.18004 5.67999 7.57004 4.74999C7.96004 3.81999 8.69003 2.75 9.77003 1.55C8.71003 2.06 8.04003 2.35999 7.75003 2.44999C7.46003 2.53999 7.14003 2.58999 6.81003 2.58999C6.53003 2.58999 6.13003 2.53999 5.61003 2.43999C5.08003 2.33999 4.69003 2.28999 4.42003 2.28999C3.80003 2.28999 3.32003 2.42999 3.00003 2.69999C2.67003 2.97999 2.46004 3.40999 2.38004 4.00999L1.87003 3.91C2.02003 2.92 2.34003 2.13999 2.83003 1.57999C3.52003 0.799994 4.45003 0.399994 5.61003 0.399994C5.95003 0.399994 6.35004 0.44999 6.82004 0.55999C7.70004 0.74999 8.44002 0.839989 9.04002 0.839989C9.51002 0.839989 9.92003 0.799994 10.28 0.719994C10.64 0.639994 11.07 0.47999 11.57 0.23999L11.9 0.62999C10.97 1.39999 10.32 2.16999 9.96004 2.93999C9.60004 3.70999 9.42003 4.80999 9.42003 6.20999C9.42003 6.94999 9.45003 7.58999 9.50003 8.14999C9.52003 8.39999 9.63004 9.20999 9.85004 10.58C10.11 12.31 10.24 13.44 10.24 13.99C10.24 15.01 9.93004 15.79 9.32004 16.35C8.87004 16.76 8.13003 17.07 7.11003 17.28C8.15003 18.18 8.87002 18.75 9.29002 18.97C9.71002 19.19 10.12 19.3 10.53 19.3C11.12 19.3 11.63 19.08 12.04 18.65C12.45 18.22 12.66 17.65 12.66 16.96C12.66 16.12 12.46 14.53 12.06 12.19C11.58 9.42999 11.34 7.35999 11.34 5.98999C11.34 4.70999 11.52 3.68999 11.88 2.91999C12.24 2.15999 12.77 1.52999 13.48 1.03999C14 0.739993 14.78 0.469991 15.81 0.279991Z" fill="black"/>
<path d="M26.17 6.27L27.99 8.27L29.29 7.01L29.67 7.37C29.04 7.94 28.66 8.38 28.53 8.67C28.35 9.06 28.26 9.6 28.26 10.29V16.66C28.26 17.25 28.35 17.69 28.54 17.97C28.66 18.16 28.78 18.25 28.93 18.25C29.06 18.25 29.35 18.08 29.81 17.73L30.14 18.14L27.28 20.49C26.54 19.93 26.07 19.44 25.86 19.01C25.65 18.58 25.55 17.89 25.55 16.93V9.62L24.37 8.37L22.1 10.2V17.61L23.1 18.56L20.75 20.48L18.39 18.56L19.39 17.61V10.8C19.39 9.83 19.29 9.18 19.1 8.84C18.97 8.61 18.81 8.49 18.65 8.49C18.47 8.49 18.2 8.66 17.85 9.01L17.52 8.6L20.35 6.25C21.13 6.84 21.62 7.3 21.82 7.64C22.02 7.98 22.11 8.45 22.11 9.06V9.54L26.17 6.27Z" fill="black"/>
<path d="M31.36 7.73001L35.0701 3.13H35.4601L35.33 6.82001H38.01V8.32001H35.33V17.32L36.8201 18.43L37.67 17.76L38 18.16L35.06 20.51C34.06 19.49 32.93 18.79 31.67 18.43V18.16C32.02 17.92 32.2601 17.67 32.3801 17.41C32.5301 17.08 32.61 16.6 32.61 15.98V8.32001H31.36V7.73001Z" fill="black"/>
<path d="M45.17 6.26999L48.92 10.66L42.96 14.85V17.28L46.05 18.51L48.14 17.08L48.43 17.48L44.12 20.5C43.24 20.03 42.52 19.69 41.95 19.48C41.38 19.28 40.57 19.06 39.52 18.84V18.51C39.82 18.33 40.02 18.11 40.13 17.85C40.23 17.59 40.28 17.02 40.28 16.15V8.50999C41.11 8.20999 41.81 7.92999 42.36 7.67999C42.76 7.49999 43.69 7.02999 45.17 6.26999ZM43.14 7.80999L42.95 7.89999V13.96L46.46 11.49L43.14 7.80999Z" fill="black"/>
<path d="M57.59 6.26999L59.61 8.68999L57.59 10.49L55.91 8.34999L54.59 9.55V17.32L56.11 18.42L57.48 17.34L57.79 17.77L54.38 20.51C53.65 19.86 53.04 19.39 52.55 19.11C52.06 18.83 51.52 18.6 50.94 18.44V18.15C51.33 17.87 51.59 17.6 51.71 17.32C51.83 17.04 51.89 16.5 51.89 15.71V10.26C51.89 9.56999 51.81 9.11999 51.66 8.88999C51.51 8.65999 51.34 8.55 51.16 8.55C50.96 8.55 50.69 8.72999 50.34 9.07999L50.01 8.68999L52.79 6.26999C53.55 6.84999 54.06 7.34999 54.34 7.77999C54.52 8.04999 54.61 8.41999 54.61 8.88999L57.59 6.26999Z" fill="black"/>
<path d="M69.31 6.27L71.1301 8.27L72.43 7.01L72.81 7.37C72.18 7.94 71.8 8.38 71.67 8.67C71.49 9.06 71.4 9.6 71.4 10.29V16.66C71.4 17.25 71.49 17.69 71.68 17.97C71.8 18.16 71.9201 18.25 72.0701 18.25C72.2001 18.25 72.49 18.08 72.95 17.73L73.28 18.14L70.43 20.49C69.69 19.93 69.22 19.44 69.01 19.01C68.8 18.58 68.7 17.89 68.7 16.93V9.62L67.5201 8.37L65.25 10.2V17.61L66.25 18.56L63.9 20.48L61.54 18.56L62.54 17.61V10.8C62.54 9.83 62.44 9.18 62.25 8.84C62.12 8.61 61.96 8.49 61.8 8.49C61.62 8.49 61.35 8.66 61 9.01L60.67 8.6L63.5 6.25C64.28 6.84 64.77 7.3 64.97 7.64C65.17 7.98 65.26 8.45 65.26 9.06V9.54L69.31 6.27Z" fill="black"/>
<path d="M84.37 6.84999L84.85 7.03999C84.37 7.78999 84.07 8.35999 83.94 8.75999C83.81 9.15999 83.75 9.69 83.75 10.37V16.06C83.75 17 83.82 17.59 83.95 17.83C84.08 18.07 84.24 18.18 84.43 18.18C84.53 18.18 84.63 18.15 84.73 18.1C84.79 18.06 84.98 17.9 85.3 17.64L85.63 18.05L82.8 20.51C82.11 19.98 81.66 19.5 81.42 19.07C81.19 18.65 81.06 18.06 81.03 17.3L76.99 20.51C75.47 19.26 74.71 18.03 74.71 16.82C74.71 16.01 74.88 15.25 75.2 14.53C75.64 13.59 76.39 12.5 77.46 11.25L75.86 7.81999L76.05 7.46999C76.4 7.49999 76.65 7.50999 76.82 7.50999C77.86 7.50999 78.79 7.09999 79.58 6.26999C80.23 6.64999 80.93 6.94999 81.7 7.17999C82.47 7.40999 83.05 7.51999 83.46 7.51999C83.65 7.51999 83.79 7.48999 83.88 7.41999C83.97 7.34999 84.14 7.16999 84.37 6.84999ZM81.03 9.38999L76.48 7.98999L78.1 11.43L81.03 12.81V9.38999ZM81.03 13.37L77.81 11.85C77.31 12.94 77.06 13.89 77.06 14.71C77.06 16.15 77.71 17.34 79.02 18.28L81.03 16.65V13.37Z" fill="black"/>
<path d="M86.73 7.73001L90.44 3.13H90.83L90.7 6.82001H93.38V8.32001H90.7V17.32L92.19 18.43L93.04 17.76L93.37 18.16L90.43 20.51C89.43 19.49 88.3 18.79 87.04 18.43V18.16C87.39 17.92 87.63 17.67 87.75 17.41C87.9 17.08 87.98 16.6 87.98 15.98V8.32001H86.73V7.73001Z" fill="black"/>
<path d="M97.27 6.26999L99.63 8.23999L98.58 9.25999V16.53C98.58 17.3 98.64 17.79 98.77 18.03C98.9 18.26 99.03 18.38 99.17 18.38C99.27 18.38 99.35 18.36 99.43 18.31C99.54 18.25 99.77 18.07 100.13 17.78L100.46 18.19L97.6 20.51C96.89 20 96.43 19.52 96.22 19.07C96.01 18.62 95.91 17.83 95.91 16.71V9.25999L94.91 8.23999L97.27 6.26999ZM98.28 1.70999H99.97L98.13 4.58999H97.6L98.28 1.70999Z" fill="black"/>
<path d="M112.06 8.21999V18.21C110.73 18.75 109.76 19.2 109.17 19.55C108.72 19.81 108.28 20.13 107.86 20.51C106.57 19.73 105.51 19.18 104.66 18.88C104.02 18.65 103.3 18.51 102.49 18.48L102.36 18.21C102.7 17.92 102.91 17.67 103 17.44C103.12 17.14 103.19 16.63 103.19 15.9V8.56999C104.82 8.02999 106.21 7.25999 107.36 6.26999C108.61 7.10999 110.18 7.75999 112.06 8.21999ZM105.87 16.92L109.34 18.35V9.87C108.25 9.36 107.48 9.01999 107.02 8.85999C106.7 8.73999 106.31 8.63999 105.86 8.55999V16.92H105.87Z" fill="black"/>
<path d="M122.95 6.27L124.77 8.27L126.07 7.01L126.45 7.37C125.82 7.94 125.44 8.38 125.31 8.67C125.13 9.06 125.04 9.6 125.04 10.29V16.66C125.04 17.25 125.13 17.69 125.32 17.97C125.44 18.16 125.56 18.25 125.71 18.25C125.84 18.25 126.13 18.08 126.59 17.73L126.92 18.14L124.06 20.49C123.32 19.93 122.85 19.44 122.64 19.01C122.43 18.58 122.33 17.89 122.33 16.93V9.62L121.15 8.37L118.88 10.2V17.61L119.88 18.56L117.53 20.48L115.17 18.56L116.17 17.61V10.8C116.17 9.83 116.07 9.18 115.88 8.84C115.75 8.61 115.59 8.49 115.43 8.49C115.25 8.49 114.98 8.66 114.63 9.01L114.3 8.6L117.13 6.25C117.91 6.84 118.4 7.3 118.6 7.64C118.8 7.98 118.89 8.45 118.89 9.06V9.54L122.95 6.27Z" fill="black"/>
<path d="M138.01 6.84999L138.49 7.03999C138.01 7.78999 137.71 8.35999 137.58 8.75999C137.45 9.15999 137.39 9.69 137.39 10.37V16.06C137.39 17 137.46 17.59 137.59 17.83C137.72 18.07 137.88 18.18 138.07 18.18C138.17 18.18 138.27 18.15 138.37 18.1C138.43 18.06 138.62 17.9 138.94 17.64L139.27 18.05L136.44 20.51C135.75 19.98 135.3 19.5 135.06 19.07C134.83 18.65 134.7 18.06 134.67 17.3L130.63 20.51C129.11 19.26 128.35 18.03 128.35 16.82C128.35 16.01 128.52 15.25 128.84 14.53C129.28 13.59 130.03 12.5 131.1 11.25L129.5 7.81999L129.69 7.46999C130.04 7.49999 130.29 7.50999 130.46 7.50999C131.5 7.50999 132.43 7.09999 133.22 6.26999C133.87 6.64999 134.57 6.94999 135.34 7.17999C136.11 7.40999 136.69 7.51999 137.1 7.51999C137.29 7.51999 137.43 7.48999 137.52 7.41999C137.61 7.34999 137.78 7.16999 138.01 6.84999ZM134.67 9.38999L130.12 7.98999L131.74 11.43L134.67 12.81V9.38999ZM134.67 13.37L131.45 11.85C130.95 12.94 130.7 13.89 130.7 14.71C130.7 16.15 131.35 17.34 132.66 18.28L134.67 16.65V13.37Z" fill="black"/>
<path d="M146.49 1.37V1.71999C145.79 2.08999 145.29 2.52999 145.01 3.05999C144.72 3.58999 144.58 4.38999 144.58 5.46999V17.34L146.1 18.48L146.69 18L147.02 18.48L144.35 20.51C143.54 19.81 142.94 19.34 142.54 19.11C142.14 18.88 141.61 18.67 140.96 18.48V18.19C141.21 18.04 141.4 17.85 141.54 17.62C141.68 17.39 141.77 17.12 141.83 16.81C141.85 16.7 141.86 16.17 141.87 15.21V5.66999C141.87 4.85999 141.84 4.3 141.78 3.98C141.72 3.66 141.59 3.35999 141.41 3.06999C141.22 2.77999 140.91 2.45999 140.46 2.09999L140.67 1.82999C141.48 2.05999 142.21 2.52999 142.85 3.24999C143.51 2.54999 144.11 2.06999 144.65 1.80999C145.18 1.53999 145.79 1.4 146.49 1.37Z" fill="black"/>
<path d="M172.34 0.279999C173.26 0.529999 173.96 0.889997 174.43 1.38C175.09 2.06 175.43 2.84 175.43 3.72C175.43 4.44 175.17 5.19 174.65 5.96C174.13 6.73 173.18 7.64 171.79 8.7C172.98 8.81 173.85 9 174.4 9.29C174.95 9.58 175.34 9.94 175.56 10.39C175.78 10.84 175.89 11.58 175.89 12.62V17.22C172.73 17.58 170.04 18.68 167.82 20.53C167.05 20 166.31 19.62 165.62 19.39C164.5 19.02 163.3 18.83 162.02 18.83C160.45 18.83 159.19 19.15 158.24 19.79C157.6 20.22 157.28 20.64 157.28 21.07C157.28 21.23 157.37 21.47 157.55 21.78C157.73 22.1 157.82 22.35 157.82 22.53C157.82 22.71 157.75 22.86 157.62 23C157.49 23.14 157.34 23.2 157.18 23.2C156.93 23.2 156.71 23.08 156.51 22.85C156.31 22.61 156.21 22.31 156.21 21.94C156.21 21.59 156.33 21.2 156.58 20.76C156.82 20.32 157.35 19.68 158.16 18.86C158.97 18.03 159.49 17.43 159.72 17.04C159.95 16.66 160.06 16.3 160.06 15.97C160.06 15.58 159.93 15.26 159.67 15C159.41 14.75 159.08 14.62 158.68 14.62C158.32 14.62 158.02 14.72 157.79 14.93C157.56 15.14 157.4 15.47 157.33 15.95L156.84 15.94C156.83 15.77 156.83 15.65 156.83 15.57C156.83 14.82 157.08 14.21 157.58 13.73C158.08 13.25 158.75 13.01 159.58 13.01C159.68 13.01 159.83 13.01 160.03 13.02C160.02 12.15 159.89 11.52 159.64 11.12C159.25 10.49 158.66 10.17 157.86 10.17C157.36 10.17 156.93 10.3 156.54 10.56C156.34 10.69 156.13 10.97 155.93 11.39L155.42 11.21C155.51 10.36 155.84 9.68 156.41 9.17C156.98 8.66 157.71 8.41 158.6 8.41C158.93 8.41 159.34 8.44 159.82 8.49C159.86 7.24 159.97 6.32 160.17 5.75C160.37 5.18 160.69 4.65 161.16 4.18C161.62 3.7 162.5 3.04 163.78 2.2C162.56 2.6 161.54 2.8 160.69 2.8C160.15 2.8 159.44 2.69 158.56 2.48C158.05 2.36 157.69 2.31 157.48 2.31C157.08 2.31 156.74 2.45 156.47 2.72C156.19 2.99 156.01 3.47 155.92 4.17H155.41C155.44 3.36 155.59 2.68 155.86 2.13C156.13 1.58 156.55 1.14 157.11 0.800003C157.67 0.460003 158.26 0.300003 158.88 0.300003C159.34 0.300003 160.11 0.429997 161.18 0.699997C162.25 0.969997 163.12 1.1 163.79 1.1C164.28 1.1 164.75 1.05 165.21 0.940002C165.67 0.830002 166.27 0.620003 167.01 0.300003L167.28 0.889999C165.36 1.82 164.08 2.74 163.44 3.62C162.8 4.51 162.49 5.68 162.49 7.15V12.64C162.49 13.84 162.36 14.78 162.09 15.44C161.82 16.11 161.29 16.87 160.48 17.72C162.05 17.05 163.11 16.34 163.65 15.57C164.19 14.8 164.46 13.68 164.46 12.19V8.25C164.46 6.42 164.62 5.12 164.94 4.37C165.26 3.62 165.85 2.97 166.71 2.43C167.58 1.89 169.45 1.17 172.34 0.279999ZM170.04 1.58C169.08 2.02 168.43 2.39 168.1 2.69C167.77 2.99 167.53 3.35 167.41 3.76C167.28 4.17 167.22 4.88 167.22 5.86V11.33C167.22 12.31 167.13 13.05 166.95 13.54C166.77 14.03 166.43 14.52 165.93 15C165.42 15.48 164.4 16.17 162.86 17.08C163.69 16.96 164.47 16.89 165.19 16.89C166.41 16.89 167.57 17.06 168.66 17.4V6.28H169.25V9.75C170.48 9.01 171.38 8.25 171.97 7.47C172.56 6.69 172.85 5.85 172.85 4.94C172.85 4.19 172.62 3.55 172.17 3.01C171.68 2.48 170.98 2 170.04 1.58ZM169.23 11.67C169.96 11.93 170.61 12.06 171.2 12.06C171.79 12.06 172.44 11.93 173.17 11.67C173.17 11.06 173.03 10.56 172.76 10.19C172.49 9.82 171.97 9.46 171.2 9.13C170.23 9.77 169.58 10.19 169.23 10.37V11.67ZM173.17 12.26C172.42 12.53 171.77 12.66 171.2 12.66C170.59 12.66 169.93 12.53 169.23 12.26V14.64C169.91 14.39 170.55 14.27 171.15 14.27C171.73 14.27 172.4 14.39 173.17 14.64V12.26ZM173.17 15.25C172.35 14.96 171.66 14.81 171.09 14.81C170.5 14.81 169.87 14.96 169.23 15.25V17.63C169.61 17.8 169.97 17.99 170.31 18.21C171.21 17.73 172.17 17.36 173.17 17.09V15.25Z" fill="black"/>
<path d="M188.01 8.21999V18.21C186.68 18.75 185.71 19.2 185.12 19.55C184.67 19.81 184.23 20.13 183.81 20.51C182.52 19.73 181.46 19.18 180.61 18.88C179.97 18.65 179.25 18.51 178.44 18.48L178.31 18.21C178.65 17.92 178.86 17.67 178.95 17.44C179.07 17.14 179.14 16.63 179.14 15.9V8.56999C180.77 8.02999 182.16 7.25999 183.31 6.26999C184.57 7.10999 186.14 7.75999 188.01 8.21999ZM181.82 16.92L185.29 18.35V9.87C184.2 9.36 183.43 9.01999 182.97 8.85999C182.65 8.73999 182.26 8.63999 181.81 8.55999V16.92H181.82Z" fill="black"/>
<path d="M200.07 6.84999L200.55 7.03999C200.07 7.78999 199.77 8.35999 199.64 8.75999C199.51 9.15999 199.45 9.69 199.45 10.37V16.06C199.45 17 199.52 17.59 199.65 17.83C199.78 18.07 199.94 18.18 200.13 18.18C200.23 18.18 200.33 18.15 200.43 18.1C200.49 18.06 200.68 17.9 201 17.64L201.33 18.05L198.5 20.51C197.81 19.98 197.36 19.5 197.12 19.07C196.89 18.65 196.76 18.06 196.73 17.3L192.69 20.51C191.17 19.26 190.41 18.03 190.41 16.82C190.41 16.01 190.58 15.25 190.9 14.53C191.34 13.59 192.09 12.5 193.16 11.25L191.56 7.81999L191.75 7.46999C192.1 7.49999 192.35 7.50999 192.52 7.50999C193.56 7.50999 194.49 7.09999 195.28 6.26999C195.93 6.64999 196.63 6.94999 197.4 7.17999C198.17 7.40999 198.75 7.51999 199.16 7.51999C199.35 7.51999 199.49 7.48999 199.58 7.41999C199.67 7.34999 199.84 7.16999 200.07 6.84999ZM196.73 9.38999L192.18 7.98999L193.8 11.43L196.73 12.81V9.38999ZM196.73 13.37L193.51 11.85C193.01 12.94 192.76 13.89 192.76 14.71C192.76 16.15 193.41 17.34 194.72 18.28L196.73 16.65V13.37Z" fill="black"/>
<path d="M210.21 6.26999L212.23 8.68999L210.21 10.49L208.53 8.34999L207.21 9.55V17.32L208.73 18.42L210.1 17.34L210.41 17.77L207 20.51C206.27 19.86 205.66 19.39 205.17 19.11C204.68 18.83 204.14 18.6 203.56 18.44V18.15C203.95 17.87 204.21 17.6 204.33 17.32C204.45 17.04 204.51 16.5 204.51 15.71V10.26C204.51 9.56999 204.43 9.11999 204.28 8.88999C204.13 8.65999 203.96 8.55 203.78 8.55C203.58 8.55 203.31 8.72999 202.96 9.07999L202.63 8.68999L205.41 6.26999C206.17 6.84999 206.68 7.34999 206.96 7.77999C207.14 8.04999 207.23 8.41999 207.23 8.88999L210.21 6.26999Z" fill="black"/>
<path d="M213.34 1.72L222.39 7.96C222.53 7.63 222.69 7.38 222.86 7.21C223.03 7.04 223.3 6.88 223.65 6.73V7.28C223.47 7.52 223.36 7.74 223.3 7.93C223.25 8.13 223.22 8.53 223.22 9.13V18.12C222.09 18.55 221.26 18.92 220.71 19.24C220.16 19.56 219.57 19.98 218.93 20.52C217.88 19.83 216.95 19.34 216.14 19.02C215.33 18.71 214.46 18.49 213.53 18.38V18.13C213.85 17.85 214.06 17.58 214.15 17.3C214.24 17.02 214.29 16.44 214.29 15.56V8.56C215.51 8.22 216.37 7.84 216.87 7.41L213.33 4.99V1.72H213.34ZM220.52 9.89L217.77 8.01C217.53 8.21 217.28 8.38 217.02 8.53V16.79L220.52 18.35V9.89Z" fill="black"/>
<path d="M242.43 8.21999V18.21C241.1 18.75 240.13 19.2 239.54 19.55C239.09 19.81 238.65 20.13 238.23 20.51C236.94 19.73 235.88 19.18 235.03 18.88C234.39 18.65 233.67 18.51 232.86 18.48L232.73 18.21C233.07 17.92 233.28 17.67 233.37 17.44C233.49 17.14 233.56 16.63 233.56 15.9V8.56999C235.19 8.02999 236.58 7.25999 237.73 6.26999C238.98 7.10999 240.55 7.75999 242.43 8.21999ZM236.24 16.92L239.71 18.35V9.87C238.62 9.36 237.85 9.01999 237.39 8.85999C237.07 8.73999 236.68 8.63999 236.23 8.55999V16.92H236.24Z" fill="black"/>
<path d="M251.35 2.01001L250.93 4.23001L248.49 3.67001V6.89001H250.55V8.39001H248.49V17.35L249.99 18.49L251.03 17.65L251.34 18.02L248.25 20.52C247.16 19.52 246.03 18.85 244.88 18.49L244.8 18.17C245.12 17.97 245.34 17.75 245.47 17.53C245.68 17.17 245.79 16.72 245.79 16.21V8.40001H244.54V6.90001H245.79V3.68001C247.13 2.77001 248.14 2.01 248.82 1.38L251.35 2.01001Z" fill="black"/>
<path d="M267.25 0.549988L273.25 2.55998L273.69 1.76998C273.85 1.48998 273.97 1.30998 274.03 1.23998C274.1 1.16998 274.18 1.13998 274.26 1.13998C274.35 1.13998 274.42 1.16999 274.48 1.22999C274.54 1.28999 274.57 1.35999 274.57 1.43999C274.57 1.56999 274.46 1.80999 274.24 2.17999L271.34 7.11999L273.64 6.96999C274.33 6.93999 275.14 7.03999 276.06 7.25999C276.98 7.47999 277.77 7.82999 278.43 8.29999C279.09 8.76999 279.61 9.31998 279.99 9.95998C280.37 10.6 280.56 11.3 280.56 12.06C280.56 13.47 279.97 14.85 278.8 16.21C277.62 17.57 275.53 19 272.53 20.5C271.47 20.11 270.24 19.7 268.84 19.26C266.34 20.41 264.29 20.98 262.68 20.98C261.54 20.98 260.65 20.73 260.04 20.23C259.42 19.73 259.11 19.15 259.11 18.49C259.11 17.79 259.48 17.14 260.23 16.56C260.98 15.98 262.08 15.69 263.55 15.69C264.13 15.69 264.84 15.76 265.69 15.9L266.77 13.99L264.82 14.14C264.36 14.15 263.74 14.08 262.96 13.95C262.18 13.81 261.54 13.59 261.04 13.28C260.54 12.97 260.16 12.59 259.92 12.13C259.67 11.68 259.55 11.2 259.55 10.7C259.55 9.90998 259.83 9.19998 260.39 8.58998C260.74 8.19998 261.33 7.84998 262.15 7.52998L262.14 7.36999C262.14 6.53999 262.51 5.58998 263.24 4.51998C263.96 3.44998 265.3 2.11999 267.25 0.549988ZM267.92 18.96C265.71 18.22 263.9 17.85 262.49 17.85C261.76 17.85 261.19 18.01 260.76 18.33C260.47 18.54 260.32 18.81 260.32 19.12C260.32 19.45 260.47 19.71 260.76 19.91C261.22 20.23 261.89 20.39 262.77 20.39C264.12 20.39 265.83 19.91 267.92 18.96ZM269.25 9.61999C268.1 9.78999 266.98 9.86999 265.89 9.86999C264.68 9.86999 263.83 9.72999 263.32 9.43999C262.81 9.14999 262.44 8.70998 262.19 8.09998C261.55 8.50998 261.23 9.01999 261.23 9.61999C261.23 10.17 261.48 10.63 261.98 10.98C262.64 11.44 263.76 11.67 265.35 11.67C266.1 11.67 267.05 11.6 268.2 11.47L269.25 9.61999ZM272.04 4.68999C270.65 3.99999 269.56 3.52999 268.79 3.29999C268.01 3.05999 267.32 2.94998 266.73 2.94998C265.9 2.94998 265.22 3.18999 264.7 3.65999C264.18 4.12999 263.92 4.67998 263.92 5.31998C263.92 5.93998 264.14 6.45999 264.59 6.85999C265.04 7.25999 265.72 7.45998 266.62 7.45998C267.22 7.45998 268.55 7.36999 270.64 7.18999L272.04 4.68999ZM266.3 16.02C267.14 16.2 267.82 16.38 268.35 16.53C268.88 16.69 269.82 17 271.17 17.47C273.32 16.49 274.39 15.54 274.39 14.62C274.39 14.33 274.26 14.08 274.01 13.84C273.76 13.61 273.44 13.49 273.05 13.49C272.58 13.49 271.99 13.53 271.3 13.61C269.36 13.82 268.09 13.92 267.49 13.92L266.3 16.02ZM268.91 11.43C271.03 11.22 272.5 11.12 273.32 11.12C274.45 11.12 275.31 11.38 275.9 11.89C276.49 12.4 276.79 13.02 276.79 13.73C276.79 14.35 276.5 14.96 275.92 15.55C275.34 16.14 274.09 16.87 272.17 17.75L274.88 18.47C276.04 17.75 276.94 16.97 277.57 16.13C278.2 15.29 278.52 14.37 278.52 13.36C278.52 12.7 278.32 12.05 277.93 11.42C277.53 10.78 276.93 10.28 276.11 9.89999C275.29 9.51999 274.35 9.32999 273.28 9.32999C272.42 9.32999 271.31 9.40999 269.97 9.57999L268.91 11.43Z" fill="black"/>
<path d="M292.12 6.84999L292.6 7.03999C292.12 7.78999 291.82 8.35999 291.69 8.75999C291.56 9.15999 291.5 9.69 291.5 10.37V16.06C291.5 17 291.57 17.59 291.7 17.83C291.83 18.07 291.99 18.18 292.18 18.18C292.28 18.18 292.38 18.15 292.48 18.1C292.54 18.06 292.73 17.9 293.05 17.64L293.38 18.05L290.55 20.51C289.86 19.98 289.4 19.5 289.17 19.07C288.94 18.65 288.81 18.06 288.78 17.3L284.74 20.51C283.22 19.26 282.46 18.03 282.46 16.82C282.46 16.01 282.62 15.25 282.95 14.53C283.39 13.59 284.14 12.5 285.21 11.25L283.61 7.81999L283.8 7.46999C284.15 7.49999 284.4 7.50999 284.57 7.50999C285.61 7.50999 286.54 7.09999 287.33 6.26999C287.98 6.64999 288.68 6.94999 289.45 7.17999C290.22 7.40999 290.8 7.51999 291.21 7.51999C291.4 7.51999 291.54 7.48999 291.63 7.41999C291.72 7.36999 291.89 7.16999 292.12 6.84999ZM288.78 9.38999L284.23 7.98999L285.85 11.43L288.78 12.81V9.38999ZM288.78 13.37L285.56 11.85C285.06 12.94 284.81 13.89 284.81 14.71C284.81 16.15 285.46 17.34 286.77 18.28L288.78 16.65V13.37Z" fill="black"/>
<path d="M301.2 2.01001L300.78 4.23001L298.34 3.67001V6.89001H300.4V8.39001H298.34V17.35L299.84 18.49L300.88 17.65L301.19 18.02L298.1 20.52C297.01 19.52 295.88 18.85 294.73 18.49L294.65 18.17C294.97 17.97 295.19 17.75 295.31 17.53C295.52 17.17 295.63 16.72 295.63 16.21V8.40001H294.38V6.90001H295.63V3.68001C296.97 2.77001 297.98 2.01 298.66 1.38L301.2 2.01001Z" fill="black"/>
<path d="M308.28 6.26999L312.03 10.66L306.07 14.85V17.28L309.16 18.51L311.25 17.08L311.54 17.48L307.23 20.5C306.35 20.03 305.63 19.69 305.06 19.48C304.49 19.28 303.68 19.06 302.63 18.84V18.51C302.93 18.33 303.13 18.11 303.24 17.85C303.34 17.59 303.39 17.02 303.39 16.15V8.50999C304.22 8.20999 304.92 7.92999 305.47 7.67999C305.87 7.49999 306.81 7.02999 308.28 6.26999ZM306.26 7.80999L306.07 7.89999V13.96L309.58 11.49L306.26 7.80999Z" fill="black"/>
<path d="M312.93 7.73001L316.64 3.13H317.03L316.9 6.82001H319.58V8.32001H316.9V17.32L318.39 18.43L319.24 17.76L319.57 18.16L316.63 20.51C315.63 19.49 314.5 18.79 313.24 18.43V18.16C313.59 17.92 313.83 17.67 313.95 17.41C314.1 17.08 314.18 16.6 314.18 15.98V8.32001H312.93V7.73001Z" fill="black"/>
<path d="M320.74 8.60999L323.53 6.26999C324.29 6.78999 324.79 7.24 325.01 7.62C325.24 8 325.35 8.52999 325.35 9.19999V9.48999L329.36 6.26999C330.74 7.71999 331.43 9.26999 331.43 10.93C331.43 11.82 331.2 12.71 330.75 13.59C330.3 14.48 329.59 15.32 328.62 16.11C327.65 16.91 326.09 17.95 323.94 19.24C323 19.81 322.44 20.17 322.25 20.32C321.85 20.63 321.57 20.93 321.4 21.23C321.28 21.44 321.21 21.68 321.21 21.95C321.21 22.4 321.43 22.82 321.88 23.21C322.33 23.6 322.92 23.79 323.66 23.79C324.19 23.79 324.63 23.7 324.98 23.51C325.15 23.42 325.31 23.23 325.47 22.94C325.63 22.65 325.77 22.46 325.88 22.37C326 22.28 326.13 22.24 326.29 22.24C326.47 22.24 326.61 22.29 326.72 22.39C326.83 22.49 326.88 22.62 326.88 22.78C326.88 23.07 326.67 23.35 326.25 23.62C325.61 24.07 324.8 24.29 323.83 24.29C322.81 24.29 322.02 24.05 321.47 23.56C320.92 23.07 320.65 22.5 320.65 21.83C320.65 21.17 320.96 20.53 321.57 19.91C321.86 19.61 322.05 19.39 322.12 19.27C322.32 18.93 322.45 18.62 322.52 18.33C322.59 18.04 322.63 17.63 322.63 17.11V10.73C322.63 9.84 322.53 9.23 322.33 8.91C322.17 8.66 322 8.53999 321.82 8.53999C321.67 8.53999 321.48 8.65999 321.24 8.88999C321.2 8.92999 321.15 8.98 321.07 9.05L320.74 8.60999ZM325.36 10.11V17.69C326.61 16.78 327.49 15.84 328.02 14.85C328.55 13.87 328.81 12.93 328.81 12.04C328.81 10.84 328.32 9.65999 327.35 8.50999L325.36 10.11Z" fill="black"/>
<path d="M350.5 0.760002H351.11V3.18L354.8 0.760002C356.67 1.94 357.96 2.89 358.68 3.6C359.39 4.31 359.86 4.98 360.09 5.6C360.32 6.22 360.43 7.14 360.43 8.35V16.86L356.34 20.51C355.25 20.06 354.3 19.74 353.5 19.53C352.7 19.33 351.91 19.19 351.11 19.13V24.35H346.15V18.89C344.82 18.97 343.72 19.17 342.85 19.49C341.98 19.81 341.11 20.32 340.23 21.03L339.8 20.5C341.02 19.18 342.06 18.25 342.94 17.71C343.82 17.18 344.89 16.78 346.15 16.52C346.14 15.31 345.98 14.34 345.68 13.6C345.38 12.87 344.83 12.2 344.04 11.6C343.25 11 342.24 10.53 341.02 10.2V9.64C341.65 9.33 342.21 9.01 342.69 8.69L346.14 6.42V5.49C346.14 4.62 346.06 3.98 345.89 3.58C345.72 3.18 345.41 2.84 344.95 2.57C344.49 2.3 343.98 2.17 343.42 2.17C342.81 2.17 342.13 2.4 341.37 2.85L341.02 2.43C341.64 1.85 342.25 1.43 342.85 1.16C343.45 0.890004 344.11 0.75 344.84 0.75C345.65 0.75 346.38 0.920002 347.04 1.26C347.7 1.6 348.17 2.03 348.45 2.54C348.73 3.05 348.88 3.74 348.9 4.62L350.5 3.53V0.760002ZM346.15 7.18L343.25 9.11C343.85 9.38 344.37 9.66 344.79 9.96C345.22 10.26 345.67 10.65 346.15 11.14V7.18ZM350.5 4.28L348.9 5.34V23.77H350.5V4.28ZM351.11 8.21C351.78 8.66 352.36 8.97 352.85 9.14C353.34 9.31 353.87 9.4 354.43 9.4C354.99 9.4 355.52 9.31 356.02 9.14C356.52 8.97 357.11 8.66 357.78 8.21C357.77 7.45 357.66 6.81 357.43 6.3C357.21 5.79 356.74 5.24 356.01 4.66C355.29 4.07 354.23 3.43 352.83 2.72L351.1 3.87V8.21H351.11ZM351.11 13.06C351.82 12.67 352.43 12.4 352.93 12.25C353.43 12.1 353.94 12.02 354.47 12.02C354.99 12.02 355.5 12.09 355.98 12.24C356.46 12.39 357.06 12.66 357.78 13.06V8.91C357.04 9.34 356.43 9.63 355.94 9.78C355.45 9.93 354.91 10 354.34 10C353.79 10 353.28 9.93 352.82 9.8C352.36 9.66 351.79 9.4 351.12 9V13.06H351.11ZM351.11 16.53C352.16 16.57 353.19 16.72 354.2 16.99C355.22 17.26 356.41 17.72 357.77 18.37V13.82C357.1 13.37 356.53 13.06 356.04 12.89C355.55 12.73 355.02 12.64 354.46 12.64C353.89 12.64 353.36 12.72 352.87 12.89C352.38 13.06 351.79 13.36 351.11 13.82V16.53Z" fill="black"/>
<path d="M370.56 6.26999L372.58 8.68999L370.56 10.49L368.88 8.34999L367.56 9.55V17.32L369.08 18.42L370.45 17.34L370.76 17.77L367.35 20.51C366.62 19.86 366.01 19.39 365.52 19.11C365.03 18.83 364.49 18.6 363.91 18.44V18.15C364.3 17.87 364.55 17.6 364.67 17.32C364.79 17.04 364.85 16.5 364.85 15.71V10.26C364.85 9.56999 364.77 9.11999 364.62 8.88999C364.47 8.65999 364.3 8.55 364.12 8.55C363.92 8.55 363.65 8.72999 363.3 9.07999L362.97 8.68999L365.74 6.26999C366.5 6.84999 367.01 7.34999 367.29 7.77999C367.47 8.04999 367.56 8.41999 367.56 8.88999L370.56 6.26999Z" fill="black"/>
<path d="M383.59 8.21999V18.21C382.26 18.75 381.29 19.2 380.7 19.55C380.25 19.81 379.81 20.13 379.39 20.51C378.1 19.73 377.04 19.18 376.19 18.88C375.55 18.65 374.83 18.51 374.02 18.48L373.89 18.21C374.23 17.92 374.44 17.67 374.53 17.44C374.66 17.14 374.72 16.63 374.72 15.9V8.56999C376.35 8.02999 377.74 7.25999 378.89 6.26999C380.15 7.10999 381.72 7.75999 383.59 8.21999ZM377.4 16.92L380.87 18.35V9.87C379.78 9.36 379.01 9.01999 378.55 8.85999C378.23 8.73999 377.85 8.63999 377.39 8.55999V16.92H377.4Z" fill="black"/>
<path d="M392.51 2.01001L392.09 4.23001L389.65 3.67001V6.89001H391.71V8.39001H389.65V17.35L391.15 18.49L392.19 17.65L392.5 18.02L389.41 20.52C388.32 19.52 387.19 18.85 386.04 18.49L385.96 18.17C386.28 17.97 386.5 17.75 386.62 17.53C386.83 17.17 386.94 16.72 386.94 16.21V8.40001H385.69V6.90001H386.94V3.68001C388.28 2.77001 389.29 2.01 389.97 1.38L392.51 2.01001Z" fill="black"/>
<path d="M399.59 6.26999L403.34 10.66L397.38 14.85V17.28L400.47 18.51L402.56 17.08L402.85 17.48L398.54 20.5C397.66 20.03 396.94 19.69 396.37 19.48C395.8 19.28 394.99 19.06 393.94 18.84V18.51C394.24 18.33 394.44 18.11 394.55 17.85C394.65 17.59 394.7 17.02 394.7 16.15V8.50999C395.53 8.20999 396.23 7.92999 396.78 7.67999C397.19 7.49999 398.12 7.02999 399.59 6.26999ZM397.57 7.80999L397.38 7.89999V13.96L400.89 11.49L397.57 7.80999Z" fill="black"/>
<path d="M411.52 11.23L414.61 12.85V18.47C413.86 18.54 413.19 18.72 412.58 19.02C411.97 19.31 411.29 19.81 410.53 20.52C409.87 20.13 409.3 19.86 408.82 19.71C408.34 19.56 407.82 19.48 407.28 19.48C406.45 19.48 405.7 19.73 405.05 20.24C404.81 20.43 404.64 20.52 404.53 20.52C404.43 20.52 404.33 20.47 404.24 20.37C404.14 20.27 404.09 20.17 404.09 20.08C404.09 19.97 404.18 19.83 404.37 19.65C404.48 19.54 404.66 19.34 404.92 19.04L406.13 17.53L407.84 15.24L404.93 13.67V8.69C405.85 8.41 406.56 8.09 407.08 7.74C407.6 7.39 408.1 6.91 408.58 6.29C409.72 6.77 410.63 7.11 411.32 7.31C411.82 7.44 412.29 7.51 412.74 7.51C413.24 7.51 413.63 7.4 413.9 7.18C414.18 6.96 414.31 6.73 414.31 6.49C414.31 6.33 414.22 6.17 414.04 6.01C413.69 5.7 413.52 5.4 413.52 5.1C413.52 4.82 413.6 4.6 413.75 4.44C413.9 4.28 414.07 4.19 414.26 4.19C414.51 4.19 414.73 4.3 414.93 4.53C415.13 4.76 415.23 5.06 415.23 5.43C415.23 5.81 415.15 6.19 414.99 6.55C414.83 6.92 414.52 7.39 414.07 7.97L411.52 11.23ZM409.91 13.37L406.7 17.68C407.09 17.55 407.45 17.45 407.79 17.39C408.13 17.33 408.43 17.3 408.71 17.3C409.73 17.3 410.79 17.64 411.89 18.32V14.45L409.91 13.37ZM407.62 12.15L409.44 13.1L412.34 9.23C411.74 9.4 411.23 9.49 410.8 9.49C409.71 9.49 408.65 9.12 407.62 8.39V12.15Z" fill="black"/>
<path d="M423.84 11.23L426.93 12.85V18.47C426.18 18.54 425.51 18.72 424.9 19.02C424.29 19.31 423.61 19.81 422.85 20.52C422.19 20.13 421.62 19.86 421.14 19.71C420.66 19.56 420.14 19.48 419.6 19.48C418.77 19.48 418.02 19.73 417.37 20.24C417.13 20.43 416.96 20.52 416.85 20.52C416.75 20.52 416.65 20.47 416.56 20.37C416.46 20.27 416.41 20.17 416.41 20.08C416.41 19.97 416.5 19.83 416.69 19.65C416.8 19.54 416.98 19.34 417.24 19.04L418.45 17.53L420.16 15.24L417.25 13.67V8.69C418.17 8.41 418.88 8.09 419.4 7.74C419.92 7.39 420.42 6.91 420.9 6.29C422.04 6.77 422.95 7.11 423.64 7.31C424.14 7.44 424.61 7.51 425.06 7.51C425.56 7.51 425.95 7.4 426.22 7.18C426.5 6.96 426.63 6.73 426.63 6.49C426.63 6.33 426.54 6.17 426.36 6.01C426.01 5.7 425.84 5.4 425.84 5.1C425.84 4.82 425.92 4.6 426.07 4.44C426.22 4.28 426.39 4.19 426.58 4.19C426.83 4.19 427.05 4.3 427.25 4.53C427.45 4.76 427.55 5.06 427.55 5.43C427.55 5.81 427.47 6.19 427.31 6.55C427.15 6.92 426.84 7.39 426.39 7.97L423.84 11.23ZM422.24 13.37L419.03 17.68C419.42 17.55 419.78 17.45 420.12 17.39C420.46 17.33 420.76 17.3 421.04 17.3C422.06 17.3 423.12 17.64 424.22 18.32V14.45L422.24 13.37ZM419.95 12.15L421.77 13.1L424.67 9.23C424.07 9.4 423.56 9.49 423.13 9.49C422.04 9.49 420.98 9.12 419.95 8.39V12.15Z" fill="black"/>
<path d="M431.79 6.26999L434.15 8.23999L433.1 9.25999V16.53C433.1 17.3 433.16 17.79 433.29 18.03C433.42 18.26 433.55 18.38 433.69 18.38C433.79 18.38 433.87 18.36 433.95 18.31C434.06 18.25 434.29 18.07 434.65 17.78L434.98 18.19L432.13 20.51C431.42 20 430.96 19.52 430.75 19.07C430.54 18.62 430.44 17.83 430.44 16.71V9.25999L429.44 8.23999L431.79 6.26999ZM432.79 1.70999H434.48L432.64 4.58999H432.11L432.79 1.70999Z" fill="black"/>
<path d="M446.57 8.21999V18.21C445.24 18.75 444.27 19.2 443.68 19.55C443.23 19.81 442.79 20.13 442.37 20.51C441.08 19.73 440.02 19.18 439.17 18.88C438.53 18.65 437.81 18.51 437 18.48L436.87 18.21C437.21 17.92 437.42 17.67 437.51 17.44C437.64 17.14 437.7 16.63 437.7 15.9V8.56999C439.33 8.02999 440.72 7.25999 441.87 6.26999C443.13 7.10999 444.69 7.75999 446.57 8.21999ZM440.38 16.92L443.85 18.35V9.87C442.76 9.36 441.99 9.01999 441.53 8.85999C441.21 8.73999 440.83 8.63999 440.37 8.55999V16.92H440.38Z" fill="black"/>
<path d="M457.47 6.27L459.29 8.27L460.59 7.01L460.97 7.37C460.34 7.94 459.96 8.38 459.83 8.67C459.65 9.06 459.56 9.6 459.56 10.29V16.66C459.56 17.25 459.65 17.69 459.84 17.97C459.96 18.16 460.08 18.25 460.23 18.25C460.36 18.25 460.65 18.08 461.11 17.73L461.44 18.14L458.58 20.49C457.84 19.93 457.37 19.44 457.16 19.01C456.95 18.58 456.85 17.89 456.85 16.93V9.62L455.67 8.37L453.4 10.2V17.61L454.4 18.56L452.05 20.48L449.69 18.56L450.69 17.61V10.8C450.69 9.83 450.59 9.18 450.4 8.84C450.27 8.61 450.12 8.49 449.95 8.49C449.77 8.49 449.5 8.66 449.15 9.01L448.82 8.6L451.65 6.25C452.43 6.84 452.92 7.3 453.12 7.64C453.32 7.98 453.41 8.45 453.41 9.06V9.54L457.47 6.27Z" fill="black"/>
<path d="M472.53 6.84999L473.01 7.03999C472.53 7.78999 472.23 8.35999 472.1 8.75999C471.97 9.15999 471.91 9.69 471.91 10.37V16.06C471.91 17 471.98 17.59 472.11 17.83C472.24 18.07 472.4 18.18 472.59 18.18C472.69 18.18 472.79 18.15 472.89 18.1C472.95 18.06 473.14 17.9 473.46 17.64L473.79 18.05L470.96 20.51C470.27 19.98 469.81 19.5 469.58 19.07C469.35 18.65 469.22 18.06 469.19 17.3L465.15 20.51C463.63 19.26 462.87 18.03 462.87 16.82C462.87 16.01 463.03 15.25 463.36 14.53C463.8 13.59 464.55 12.5 465.62 11.25L464.02 7.81999L464.21 7.46999C464.56 7.49999 464.81 7.50999 464.98 7.50999C466.02 7.50999 466.95 7.09999 467.74 6.26999C468.39 6.64999 469.09 6.94999 469.86 7.17999C470.63 7.40999 471.21 7.51999 471.62 7.51999C471.81 7.51999 471.95 7.48999 472.04 7.41999C472.13 7.36999 472.3 7.16999 472.53 6.84999ZM469.19 9.38999L464.64 7.98999L466.26 11.43L469.19 12.81V9.38999ZM469.19 13.37L465.97 11.85C465.47 12.94 465.22 13.89 465.22 14.71C465.22 16.15 465.87 17.34 467.18 18.28L469.19 16.65V13.37Z" fill="black"/>
<path d="M481.01 1.37V1.71999C480.31 2.08999 479.81 2.52999 479.53 3.05999C479.25 3.58999 479.1 4.38999 479.1 5.46999V17.34L480.62 18.48L481.21 18L481.54 18.48L478.87 20.51C478.06 19.81 477.46 19.34 477.06 19.11C476.66 18.88 476.13 18.67 475.48 18.48V18.19C475.73 18.04 475.92 17.85 476.06 17.62C476.2 17.39 476.29 17.12 476.35 16.81C476.37 16.7 476.38 16.17 476.39 15.21V5.66999C476.39 4.85999 476.36 4.3 476.3 3.98C476.24 3.66 476.11 3.35999 475.93 3.06999C475.74 2.77999 475.43 2.45999 474.98 2.09999L475.19 1.82999C476 2.05999 476.72 2.52999 477.37 3.24999C478.03 2.54999 478.63 2.06999 479.17 1.80999C479.69 1.53999 480.31 1.4 481.01 1.37Z" fill="black"/>
<path d="M489.82 11.23L492.91 12.85V18.47C492.16 18.54 491.49 18.72 490.88 19.02C490.27 19.31 489.59 19.81 488.83 20.52C488.17 20.13 487.6 19.86 487.12 19.71C486.64 19.56 486.12 19.48 485.58 19.48C484.75 19.48 484 19.73 483.35 20.24C483.11 20.43 482.94 20.52 482.83 20.52C482.73 20.52 482.63 20.47 482.54 20.37C482.44 20.27 482.39 20.17 482.39 20.08C482.39 19.97 482.48 19.83 482.67 19.65C482.78 19.54 482.96 19.34 483.22 19.04L484.43 17.53L486.14 15.24L483.23 13.67V8.69C484.15 8.41 484.86 8.09 485.38 7.74C485.9 7.39 486.4 6.91 486.88 6.29C488.02 6.77 488.93 7.11 489.62 7.31C490.12 7.44 490.59 7.51 491.04 7.51C491.54 7.51 491.93 7.4 492.2 7.18C492.48 6.96 492.61 6.73 492.61 6.49C492.61 6.33 492.52 6.17 492.34 6.01C491.99 5.7 491.82 5.4 491.82 5.1C491.82 4.82 491.9 4.6 492.05 4.44C492.2 4.28 492.37 4.19 492.56 4.19C492.81 4.19 493.03 4.3 493.23 4.53C493.43 4.76 493.53 5.06 493.53 5.43C493.53 5.81 493.45 6.19 493.29 6.55C493.13 6.92 492.82 7.39 492.37 7.97L489.82 11.23ZM488.21 13.37L485 17.68C485.39 17.55 485.75 17.45 486.09 17.39C486.43 17.33 486.73 17.3 487.01 17.3C488.03 17.3 489.09 17.64 490.19 18.32V14.45L488.21 13.37ZM485.92 12.15L487.74 13.1L490.64 9.23C490.04 9.4 489.53 9.49 489.1 9.49C488.01 9.49 486.95 9.12 485.92 8.39V12.15Z" fill="black"/>
</svg>
