<svg width="115" height="43" viewBox="0 0 115 43" fill="none" xmlns="http://www.w3.org/2000/svg">
<path d="M74.53 29.05V22.97H64.59V30.07L66.63 30.18V33.17H58.13V30.32L59.29 30.21C59.97 30.14 60.31 29.81 60.31 29.23V12.89L58.31 12.78V9.80002H66.81V12.65L65.65 12.76C65.28 12.81 65.01 12.91 64.84 13.06C64.68 13.21 64.59 13.5 64.59 13.92V19.36H74.53V12.9L72.53 12.79V9.80002H81.03V12.65L79.87 12.76C79.19 12.83 78.85 13.21 78.85 13.88V30.07L80.85 30.18V33.17H72.35V30.32L73.51 30.21C73.86 30.16 74.12 30.06 74.28 29.91C74.45 29.76 74.53 29.47 74.53 29.05Z" fill="black"/>
<path d="M86.35 29.13L91.93 12.97L89.74 12.76V9.95001H97.68L104.76 29.96H104.79L106.77 30.06V33.01H97.82V30.2L99.14 30.1C99.53 30.05 99.8 29.96 99.94 29.82C100.08 29.68 100.09 29.43 99.97 29.06L99.24 26.91H91.12L90.08 29.96L92.16 30.06V33.01H84.15V30.2L85.3 30.1C85.79 30.06 86.14 29.73 86.35 29.13ZM95.19 13.83L91.96 23.72H98.41L95.29 13.83H95.19Z" fill="url(#paint0_linear_1_620)"/>
<path d="M86.35 29.13L91.93 12.97L89.74 12.76V9.95001H97.68L104.76 29.96H104.79L106.77 30.06V33.01H97.82V30.2L99.14 30.1C99.53 30.05 99.8 29.96 99.94 29.82C100.08 29.68 100.09 29.43 99.97 29.06L99.24 26.91H91.12L90.08 29.96L92.16 30.06V33.01H84.15V30.2L85.3 30.1C85.79 30.06 86.14 29.73 86.35 29.13ZM95.19 13.83L91.96 23.72H98.41L95.29 13.83H95.19Z" stroke="white" stroke-width="0.5" stroke-miterlimit="10"/>
<path d="M114.44 0.540009V7.73001L113.01 9.16001V1.97001H8.58002C4.72002 1.97001 1.58002 5.11001 1.58002 8.97001V27.35L1.32001 27.61C1.15001 27.8 0.94999 27.99 0.73999 28.2C0.52999 28.42 0.320024 28.63 0.150024 28.8V8.97001C0.150024 4.32001 3.93002 0.540009 8.58002 0.540009H114.44Z" fill="black"/>
<path d="M114.3 14.55C113.96 14.91 113.49 15.38 113.13 15.73L113.01 15.84V34.14C113.01 38 109.87 41.14 106.01 41.14H1.58002V34.14L0.150024 35.57V42.57H106.02C110.67 42.57 114.45 38.79 114.45 34.14V14.41L114.3 14.55Z" fill="#0482C4"/>
<path d="M0.140015 32.81V34.21L1.58002 32.78V31.38L0.140015 32.81Z" fill="black"/>
<path d="M0.140015 30.07V31.62L1.58002 30.19V28.64L0.140015 30.07Z" fill="black"/>
<path d="M45.19 30.15C48.13 30.15 49.6 28.98 49.6 26.63C49.6 25.41 48.95 24.5 47.65 23.91C46.96 23.57 46.08 23.25 44.99 22.96C43.9 22.67 43 22.37 42.27 22.06C41.55 21.75 40.82 21.33 40.09 20.79C38.65 19.71 37.92 18.06 37.92 15.82C37.92 13.58 38.7 11.82 40.25 10.53C41.8 9.25001 43.83 8.60001 46.34 8.60001C48.85 8.60001 51.18 9.10001 53.33 10.11V15.62L49.59 15.88V13.75C49.59 13.38 49.54 13.11 49.44 12.94C49.17 12.48 48.31 12.24 46.85 12.24C45.39 12.24 44.32 12.5 43.62 13.01C42.92 13.52 42.57 14.32 42.57 15.4C42.57 16.18 42.86 16.87 43.45 17.46C43.84 17.85 44.42 18.18 45.19 18.43C45.96 18.69 46.78 18.95 47.65 19.22C48.52 19.49 49.29 19.78 49.96 20.1C50.63 20.42 51.34 20.86 52.07 21.42C53.56 22.52 54.31 24.22 54.31 26.52C54.31 28.82 53.48 30.63 51.83 31.95C50.18 33.27 48 33.93 45.3 33.93C42.6 33.93 40.17 33.43 38.01 32.42V26.62L41.75 26.36V28.6C41.75 28.97 41.8 29.24 41.9 29.41C42 29.58 42.3 29.75 42.8 29.91C43.32 30.07 44.11 30.15 45.19 30.15Z" fill="url(#paint1_linear_1_620)"/>
<path d="M45.19 30.15C48.13 30.15 49.6 28.98 49.6 26.63C49.6 25.41 48.95 24.5 47.65 23.91C46.96 23.57 46.08 23.25 44.99 22.96C43.9 22.67 43 22.37 42.27 22.06C41.55 21.75 40.82 21.33 40.09 20.79C38.65 19.71 37.92 18.06 37.92 15.82C37.92 13.58 38.7 11.82 40.25 10.53C41.8 9.25001 43.83 8.60001 46.34 8.60001C48.85 8.60001 51.18 9.10001 53.33 10.11V15.62L49.59 15.88V13.75C49.59 13.38 49.54 13.11 49.44 12.94C49.17 12.48 48.31 12.24 46.85 12.24C45.39 12.24 44.32 12.5 43.62 13.01C42.92 13.52 42.57 14.32 42.57 15.4C42.57 16.18 42.86 16.87 43.45 17.46C43.84 17.85 44.42 18.18 45.19 18.43C45.96 18.69 46.78 18.95 47.65 19.22C48.52 19.49 49.29 19.78 49.96 20.1C50.63 20.42 51.34 20.86 52.07 21.42C53.56 22.52 54.31 24.22 54.31 26.52C54.31 28.82 53.48 30.63 51.83 31.95C50.18 33.27 48 33.93 45.3 33.93C42.6 33.93 40.17 33.43 38.01 32.42V26.62L41.75 26.36V28.6C41.75 28.97 41.8 29.24 41.9 29.41C42 29.58 42.3 29.75 42.8 29.91C43.32 30.07 44.11 30.15 45.19 30.15Z" stroke="white" stroke-width="0.5" stroke-miterlimit="10"/>
<path d="M22.63 8.58002C17.45 8.58002 12.99 11.65 10.97 16.07C10.23 17.69 9.81 19.5 9.81 21.4C9.81 22.47 9.94 23.51 10.19 24.5C11.57 30.08 16.62 34.22 22.63 34.22C29.71 34.22 35.45 28.48 35.45 21.4C35.45 14.32 29.71 8.58002 22.63 8.58002ZM15.04 18.82C15.94 16.53 18.17 14.92 20.77 14.92C24.17 14.92 26.93 17.68 26.93 21.08C26.93 24.48 24.17 27.24 20.77 27.24C18.3 27.24 16.17 25.79 15.19 23.69C14.82 22.9 14.62 22.02 14.62 21.09C14.61 20.28 14.76 19.52 15.04 18.82Z" fill="black"/>
<path d="M31.23 19.1C30.25 14.1 25.84 10.33 20.56 10.33C16.41 10.33 12.8 12.66 10.97 16.07C10.15 17.6 9.67999 19.35 9.67999 21.2C9.67999 22.35 9.86 23.45 10.19 24.49C11.58 28.89 15.7 32.08 20.56 32.08C26.4 32.08 31.17 27.47 31.42 21.69C31.43 21.53 31.43 21.37 31.43 21.2C31.43 20.48 31.36 19.78 31.23 19.1ZM15.18 23.68C14.81 22.89 14.61 22.01 14.61 21.08C14.61 20.28 14.76 19.52 15.04 18.82C15.94 16.54 18.17 14.92 20.77 14.92C24.17 14.92 26.93 17.68 26.93 21.08C26.93 24.48 24.17 27.24 20.77 27.24C18.3 27.24 16.17 25.78 15.18 23.68C15.19 23.68 15.19 23.68 15.18 23.68Z" fill="#939598"/>
<path d="M15.18 23.68C14.81 22.89 14.61 22.01 14.61 21.08C14.61 20.28 14.76 19.52 15.04 18.82C15.94 16.54 18.17 14.92 20.77 14.92C24.17 14.92 26.93 17.68 26.93 21.08C26.93 24.48 24.17 27.24 20.77 27.24C18.3 27.24 16.17 25.78 15.18 23.68ZM15.18 23.68C15.19 23.68 15.19 23.68 15.18 23.68ZM31.23 19.1C30.25 14.1 25.84 10.33 20.56 10.33C16.41 10.33 12.8 12.66 10.97 16.07C10.15 17.6 9.67999 19.35 9.67999 21.2C9.67999 22.35 9.86 23.45 10.19 24.49C11.58 28.89 15.7 32.08 20.56 32.08C26.4 32.08 31.17 27.47 31.42 21.69C31.43 21.53 31.43 21.37 31.43 21.2C31.43 20.48 31.36 19.78 31.23 19.1Z" stroke="white" stroke-width="0.75" stroke-miterlimit="10"/>
<path d="M31.45 21.01C31.45 21.24 31.44 21.47 31.42 21.69C31.07 25.98 27.48 29.36 23.1 29.36C19.42 29.36 16.3 26.99 15.19 23.69C16.17 25.79 18.3 27.24 20.77 27.24C24.17 27.24 26.93 24.48 26.93 21.08C26.93 17.68 24.17 14.92 20.77 14.92C18.17 14.92 15.94 16.54 15.04 18.82C16 15.27 19.24 12.66 23.1 12.66C27.06 12.66 30.37 15.41 31.23 19.1C31.37 19.71 31.45 20.35 31.45 21.01Z" fill="#0482C4" stroke="white" stroke-width="0.3237" stroke-miterlimit="10"/>
<path d="M0.72998 28.2C0.51998 28.42 0.310015 28.63 0.140015 28.8V28.78L0.72998 28.2Z" fill="black"/>
<path d="M113.01 13.27V14.67L114.44 13.25V11.85L113.01 13.27Z" fill="black"/>
<path d="M113.01 10.53V12.09L114.44 10.65V9.10001L113.01 10.53Z" fill="black"/>
<defs>
<linearGradient id="paint0_linear_1_620" x1="84.1606" y1="21.4833" x2="106.777" y2="21.4833" gradientUnits="userSpaceOnUse">
<stop offset="0.3088" stop-color="#0482C4"/>
<stop offset="0.4077" stop-color="#51779E"/>
<stop offset="0.5067" stop-color="#546377"/>
<stop offset="0.5888" stop-color="#454952"/>
<stop offset="0.6499" stop-color="#262628"/>
<stop offset="0.6832"/>
</linearGradient>
<linearGradient id="paint1_linear_1_620" x1="37.9205" y1="21.2664" x2="54.3289" y2="21.2664" gradientUnits="userSpaceOnUse">
<stop offset="0.3088" stop-color="#0482C4"/>
<stop offset="0.3591" stop-color="#447DAF"/>
<stop offset="0.4268" stop-color="#547394"/>
<stop offset="0.4951" stop-color="#55657B"/>
<stop offset="0.5625" stop-color="#4E5663"/>
<stop offset="0.6289" stop-color="#41444C"/>
<stop offset="0.6939" stop-color="#2E2E32"/>
<stop offset="0.7571" stop-color="#111112"/>
<stop offset="0.8161"/>
</linearGradient>
</defs>
</svg>
